<?xml version="1.0" encoding="UTF-8"?>
<svg width="24px" height="24px" viewBox="0 0 24 24" version="1.1" xmlns="http://www.w3.org/2000/svg" xmlns:xlink="http://www.w3.org/1999/xlink">
    <g stroke="none" stroke-width="1" fill="none" fill-rule="evenodd">
        <path d="M12,9 C13.66,9 15,10.34 15,12 C15,12.34 14.94,12.68 14.82,12.98 L16.34,14.5 C17.37,13.56 18.17,12.34 18.66,11 C17.55,8.09 14.96,6 12,6 C10.95,6 9.94,6.21 9.02,6.58 L10.48,8.04 C10.94,8.02 11.46,9 12,9 Z M2.71,3.16 C2.32,3.55 2.32,4.18 2.71,4.57 L4.68,6.54 C3.06,7.83 1.77,9.53 1,11.5 C2.73,15.89 7,19 12,19 C13.52,19 14.97,18.7 16.28,18.18 L19.11,21.01 C19.5,21.4 20.13,21.4 20.52,21.01 C20.91,20.62 20.91,19.99 20.52,19.6 L4.12,3.2 C3.73,2.81 3.1,2.81 2.71,3.2 L2.71,3.16 Z M12,16 C10.34,16 9,14.66 9,13 C9,12.69 9.04,12.39 9.14,12.11 L12.89,15.86 C12.61,15.96 12.31,16 12,16 Z M5.91,7.77 L7.68,9.54 C7.24,10.14 7,10.84 7,11.5 C7,13.99 9.01,16 11.5,16 C12.16,16 12.86,15.76 13.46,15.32 L15.23,17.09 C14.22,17.65 13.14,18 12,18 C8.24,18 5,14.76 5,11 C5,9.86 5.35,8.78 5.91,7.77 Z" fill="currentColor" fill-rule="nonzero"></path>
    </g>
</svg>
