<?xml version="1.0" encoding="UTF-8"?>
<svg width="24px" height="24px" viewBox="0 0 24 24" version="1.1" xmlns="http://www.w3.org/2000/svg" xmlns:xlink="http://www.w3.org/1999/xlink">
    <g stroke="none" stroke-width="1" fill="none" fill-rule="evenodd">
        <path d="M12,9 C10.3431,9 9,10.3431 9,12 C9,13.6569 10.3431,15 12,15 C13.6569,15 15,13.6569 15,12 C15,10.3431 13.6569,9 12,9 Z" fill="currentColor" fill-rule="nonzero"></path>
        <path d="M12,5 C7,5 2.73,8.11 1,12 C2.73,15.89 7,19 12,19 C17,19 21.27,15.89 23,12 C21.27,8.11 17,5 12,5 Z M12,17 C9.24,17 7,14.76 7,12 C7,9.24 9.24,7 12,7 C14.76,7 17,9.24 17,12 C17,14.76 14.76,17 12,17 Z" fill="currentColor" fill-rule="nonzero"></path>
    </g>
</svg>
